<svg xmlns="http://www.w3.org/2000/svg" viewBox="0 0 800 480" preserveAspectRatio="xMidYMid slice" role="img" aria-label="Behavioral Analysis preview">
  <defs>
    <linearGradient id="bg" x1="0" y1="0" x2="1" y2="1">
      <stop offset="0%" stop-color="#06212a"/>
      <stop offset="55%" stop-color="#082b34"/>
      <stop offset="100%" stop-color="#0a1418"/>
    </linearGradient>
    <radialGradient id="glow" cx="50%" cy="45%" r="55%">
      <stop offset="0%" stop-color="#F6A112" stop-opacity="0.45"/>
      <stop offset="55%" stop-color="#F6A112" stop-opacity="0.10"/>
      <stop offset="100%" stop-color="#F6A112" stop-opacity="0"/>
    </radialGradient>
    <pattern id="grid" width="40" height="40" patternUnits="userSpaceOnUse">
      <path d="M40 0H0V40" fill="none" stroke="#F6A112" stroke-opacity="0.08" stroke-width="1"/>
    </pattern>
    <linearGradient id="title" x1="0" y1="0" x2="1" y2="0">
      <stop offset="0%" stop-color="#ffffff"/>
      <stop offset="100%" stop-color="#F6A112"/>
    </linearGradient>
  </defs>
  <rect width="800" height="480" fill="url(#bg)"/>
  <rect width="800" height="480" fill="url(#grid)"/>
  <rect width="800" height="480" fill="url(#glow)"/>
  <g transform="translate(400 190)" opacity="0.95">
  <circle cx="0" cy="-40" r="22" fill="none" stroke="#F6A112" stroke-width="3"/>
  <path d="M-30 0 Q0 -10 30 0 L34 70 L-34 70 Z" fill="none" stroke="#F6A112" stroke-width="3" stroke-linejoin="round"/>
  <path d="M-90 -10 L-50 -20 M90 -10 L50 -20" stroke="#F6A112" stroke-width="3" stroke-linecap="round"/>
  <circle cx="-110" cy="-10" r="6" fill="#F6A112"/><circle cx="110" cy="-10" r="6" fill="#F6A112"/>
  <path d="M-140 60 Q0 100 140 60" fill="none" stroke="#F6A112" stroke-width="2" opacity="0.5" stroke-dasharray="4 6"/>
</g>
  <g font-family="ui-sans-serif, system-ui, -apple-system, Segoe UI, Roboto" text-anchor="middle">
    <text x="400" y="370" font-size="20" letter-spacing="6" fill="#F6A112" font-weight="700">MODULE 02</text>
    <text x="400" y="420" font-size="44" font-weight="800" fill="url(#title)">Behavioral Analysis</text>
  </g>
  <g fill="#F6A112" opacity="0.6">
    <circle cx="40" cy="40" r="3"/><circle cx="760" cy="40" r="3"/>
    <circle cx="40" cy="440" r="3"/><circle cx="760" cy="440" r="3"/>
  </g>
</svg>