<svg xmlns="http://www.w3.org/2000/svg" viewBox="0 0 800 480" preserveAspectRatio="xMidYMid slice" role="img" aria-label="Cognitive Flexibility preview">
  <defs>
    <linearGradient id="bg" x1="0" y1="0" x2="1" y2="1">
      <stop offset="0%" stop-color="#06212a"/>
      <stop offset="55%" stop-color="#082b34"/>
      <stop offset="100%" stop-color="#0a1418"/>
    </linearGradient>
    <radialGradient id="glow" cx="50%" cy="45%" r="55%">
      <stop offset="0%" stop-color="#FF6B9A" stop-opacity="0.45"/>
      <stop offset="55%" stop-color="#FF6B9A" stop-opacity="0.10"/>
      <stop offset="100%" stop-color="#FF6B9A" stop-opacity="0"/>
    </radialGradient>
    <pattern id="grid" width="40" height="40" patternUnits="userSpaceOnUse">
      <path d="M40 0H0V40" fill="none" stroke="#FF6B9A" stroke-opacity="0.08" stroke-width="1"/>
    </pattern>
    <linearGradient id="title" x1="0" y1="0" x2="1" y2="0">
      <stop offset="0%" stop-color="#ffffff"/>
      <stop offset="100%" stop-color="#FF6B9A"/>
    </linearGradient>
  </defs>
  <rect width="800" height="480" fill="url(#bg)"/>
  <rect width="800" height="480" fill="url(#grid)"/>
  <rect width="800" height="480" fill="url(#glow)"/>
  <g transform="translate(400 190)" opacity="0.95">
  <path d="M-70 -50 Q-110 -50 -110 -10 Q-110 30 -70 30 Q-50 30 -40 10 Q-30 -10 -10 -10 Q10 -10 20 10 Q30 30 50 30 Q90 30 90 -10 Q90 -50 50 -50 Q30 -50 20 -30" fill="none" stroke="#FF6B9A" stroke-width="4" stroke-linecap="round"/>
  <circle cx="-70" cy="-10" r="8" fill="#FF6B9A"/>
  <circle cx="50" cy="-10" r="8" fill="#FF6B9A"/>
  <path d="M-90 60 L-60 60 M-30 60 L30 60 M60 60 L90 60" stroke="#FF6B9A" stroke-width="3" stroke-linecap="round" opacity="0.5"/>
  <circle cx="0" cy="-60" r="6" fill="#FF6B9A" opacity="0.7"/>
</g>
  <g font-family="ui-sans-serif, system-ui, -apple-system, Segoe UI, Roboto" text-anchor="middle">
    <text x="400" y="370" font-size="20" letter-spacing="6" fill="#FF6B9A" font-weight="700">MODULE 04</text>
    <text x="400" y="420" font-size="44" font-weight="800" fill="url(#title)">Cognitive Flexibility</text>
  </g>
  <g fill="#FF6B9A" opacity="0.6">
    <circle cx="40" cy="40" r="3"/><circle cx="760" cy="40" r="3"/>
    <circle cx="40" cy="440" r="3"/><circle cx="760" cy="440" r="3"/>
  </g>
</svg>