<svg xmlns="http://www.w3.org/2000/svg" viewBox="0 0 800 480" preserveAspectRatio="xMidYMid slice" role="img" aria-label="Response to Name preview">
  <defs>
    <linearGradient id="bg" x1="0" y1="0" x2="1" y2="1">
      <stop offset="0%" stop-color="#06212a"/>
      <stop offset="55%" stop-color="#082b34"/>
      <stop offset="100%" stop-color="#0a1418"/>
    </linearGradient>
    <radialGradient id="glow" cx="50%" cy="45%" r="55%">
      <stop offset="0%" stop-color="#7C5CFF" stop-opacity="0.45"/>
      <stop offset="55%" stop-color="#7C5CFF" stop-opacity="0.10"/>
      <stop offset="100%" stop-color="#7C5CFF" stop-opacity="0"/>
    </radialGradient>
    <pattern id="grid" width="40" height="40" patternUnits="userSpaceOnUse">
      <path d="M40 0H0V40" fill="none" stroke="#7C5CFF" stroke-opacity="0.08" stroke-width="1"/>
    </pattern>
    <linearGradient id="title" x1="0" y1="0" x2="1" y2="0">
      <stop offset="0%" stop-color="#ffffff"/>
      <stop offset="100%" stop-color="#7C5CFF"/>
    </linearGradient>
  </defs>
  <rect width="800" height="480" fill="url(#bg)"/>
  <rect width="800" height="480" fill="url(#grid)"/>
  <rect width="800" height="480" fill="url(#glow)"/>
  <g transform="translate(400 190)" opacity="0.95">
  <path d="M-120 0 L-80 0 L-40 -50 L-40 50 L-80 0" fill="none" stroke="#7C5CFF" stroke-width="4" stroke-linejoin="round"/>
  <path d="M-20 -30 Q10 -30 10 0 Q10 30 -20 30" fill="none" stroke="#7C5CFF" stroke-width="3"/>
  <path d="M10 -50 Q60 -50 60 0 Q60 50 10 50" fill="none" stroke="#7C5CFF" stroke-width="3" opacity="0.7"/>
  <path d="M40 -70 Q110 -70 110 0 Q110 70 40 70" fill="none" stroke="#7C5CFF" stroke-width="3" opacity="0.4"/>
</g>
  <g font-family="ui-sans-serif, system-ui, -apple-system, Segoe UI, Roboto" text-anchor="middle">
    <text x="400" y="370" font-size="20" letter-spacing="6" fill="#7C5CFF" font-weight="700">MODULE 03</text>
    <text x="400" y="420" font-size="44" font-weight="800" fill="url(#title)">Response to Name</text>
  </g>
  <g fill="#7C5CFF" opacity="0.6">
    <circle cx="40" cy="40" r="3"/><circle cx="760" cy="40" r="3"/>
    <circle cx="40" cy="440" r="3"/><circle cx="760" cy="440" r="3"/>
  </g>
</svg>